<svg id="Layer_1" enable-background="new 0 0 453.843 453.843" height="512" viewBox="0 0 453.843 453.843" width="512" xmlns="http://www.w3.org/2000/svg"><path d="m79.843 382.458c-5.856-6.618-5.238-16.729 1.38-22.585 6.617-5.856 16.729-5.239 22.585 1.38 46.863 52.96 122.213 69.816 186.704 42.708 8.148-3.424 17.526.403 20.95 8.55 3.424 8.146-.404 17.526-8.55 20.95-77.016 32.372-167.026 12.333-223.069-51.003z" fill="#86bff2"/><path d="m394.534 334.922c-11.231 0-19.048-11.373-14.866-21.908 25.107-63.245 8.474-136.398-42.754-182.615-6.561-5.919-7.081-16.037-1.162-22.598s16.037-7.081 22.598-1.162c61.128 55.149 81.11 142.486 51.061 218.182-2.492 6.276-8.511 10.101-14.877 10.101z" fill="#f4dc4d"/><path d="m57.411 206.792c-11.064 0-18.835-11.027-15.035-21.474 27.67-76.064 100.298-129.188 184.522-129.188 8.836 0 16 7.164 16 16s-7.164 16-16 16c-70.616 0-131.336 44.588-154.45 108.127-2.363 6.498-8.5 10.535-15.037 10.535z" fill="#d83d3d"/><path d="m226.898 5.123c-36.92 0-66.958 30.037-66.958 66.958s30.037 66.958 66.958 66.958 66.958-30.037 66.958-66.958-30.037-66.958-66.958-66.958z" fill="#d83d3d"/><path d="m66.958 260.413c-36.921 0-66.958 30.037-66.958 66.958 0 36.92 30.037 66.958 66.958 66.958 36.92 0 66.958-30.037 66.958-66.958s-30.038-66.958-66.958-66.958z" fill="#86bff2"/><path d="m386.839 260.413c-36.92 0-66.958 30.037-66.958 66.958 0 36.92 30.037 66.958 66.958 66.958s66.958-30.037 66.958-66.958-30.037-66.958-66.958-66.958z" fill="#e2c63b"/><path d="m215.478 6.118c-13.947 47.427 26.832 93.25 75.656 84.821 13.918-47.324-26.713-93.273-75.656-84.821z" fill="#ed4040"/><path d="m375.419 261.407c-13.947 47.427 26.832 93.25 75.656 84.821 13.918-47.324-26.713-93.272-75.656-84.821z" fill="#f4dc4d"/><path d="m55.538 261.407c-13.947 47.427 26.832 93.25 75.656 84.821 13.917-47.324-26.713-93.272-75.656-84.821z" fill="#b9dcff"/></svg>